<svg width="41" height="47" viewBox="0 0 41 47" fill="none" xmlns="http://www.w3.org/2000/svg">
<path d="M35.9861 0H4.77485C2.14286 0 0 2.14286 0 4.79814V36.2889C0 38.9442 2.14286 41.087 4.77485 41.087H31.1879L29.9535 36.778L32.9348 39.5497L35.7532 42.1584L40.7609 46.5839V4.79814C40.7609 2.14286 38.6181 0 35.9861 0ZM26.9954 30.4193C26.9954 30.4193 26.1569 29.4177 25.4581 28.5326C28.5094 27.6708 29.674 25.7609 29.674 25.7609C28.719 26.3898 27.8106 26.8323 26.9954 27.1351C25.8308 27.6243 24.7128 27.9503 23.618 28.1367C21.382 28.5559 19.3323 28.4395 17.5854 28.1134C16.2578 27.8572 15.1165 27.4845 14.1615 27.1118C13.6258 26.9022 13.0435 26.646 12.4612 26.3199C12.3913 26.2733 12.3214 26.25 12.2516 26.2035C12.205 26.1802 12.1817 26.1569 12.1584 26.1336C11.7391 25.9007 11.5062 25.7376 11.5062 25.7376C11.5062 25.7376 12.6242 27.601 15.5823 28.4861C14.8836 29.3712 14.0218 30.4193 14.0218 30.4193C8.87423 30.2563 6.91771 26.8789 6.91771 26.8789C6.91771 19.3789 10.2718 13.2997 10.2718 13.2997C13.6258 10.7842 16.8168 10.8541 16.8168 10.8541L17.0497 11.1336C12.8572 12.3447 10.9239 14.1848 10.9239 14.1848C10.9239 14.1848 11.4363 13.9053 12.2982 13.5093C14.7904 12.4146 16.7702 12.1118 17.5854 12.0419C17.7252 12.0186 17.8416 11.9954 17.9814 11.9954C19.4022 11.809 21.0093 11.7624 22.6864 11.9488C24.8991 12.205 27.2749 12.8572 29.6972 14.1848C29.6972 14.1848 27.8572 12.4379 23.8975 11.2267L24.2236 10.8541C24.2236 10.8541 27.4146 10.7842 30.7687 13.2997C30.7687 13.2997 34.1227 19.3789 34.1227 26.8789C34.1227 26.8789 32.1429 30.2563 26.9954 30.4193Z" fill="white"/>
</svg>
