<svg width="45" height="45" viewBox="0 0 45 45" fill="none" xmlns="http://www.w3.org/2000/svg">
<path d="M22.7171 0.540039C26.3781 0.540039 29.367 0.582942 31.6838 0.668748C33.6573 0.754554 35.4164 1.09778 36.9609 1.69842C38.4482 2.27046 39.7353 3.09992 40.8221 4.1868C41.909 5.27368 42.7385 6.56077 43.3105 8.04807C43.9112 9.59258 44.2544 11.3516 44.3402 13.3251C44.426 15.6419 44.4689 18.6308 44.4689 22.2919C44.4689 25.9529 44.426 28.9419 44.3402 31.2586C44.2544 33.2322 43.9112 34.9912 43.3105 36.5357C42.7385 38.023 41.909 39.3101 40.8221 40.397C39.7353 41.4839 38.4482 42.3133 36.9609 42.8854C35.4164 43.486 33.6573 43.8292 31.6838 43.915C29.367 44.0008 26.3781 44.0437 22.7171 44.0437C19.056 44.0437 16.0671 44.0008 13.7503 43.915C11.7768 43.8292 10.0178 43.486 8.47324 42.8854C6.98594 42.3133 5.69885 41.4839 4.61197 40.397C3.52509 39.3101 2.69563 38.023 2.12359 36.5357C1.52295 34.9912 1.17973 33.2322 1.09392 31.2586C1.00811 28.9419 0.96521 25.9529 0.96521 22.2919C0.96521 18.6308 1.00811 15.6419 1.09392 13.3251C1.17973 11.3516 1.52295 9.59258 2.12359 8.04807C2.69563 6.56077 3.52509 5.27368 4.61197 4.1868C5.69885 3.09992 6.98594 2.27046 8.47324 1.69842C10.0178 1.09778 11.7768 0.754554 13.7503 0.668748C16.0671 0.582942 19.056 0.540039 22.7171 0.540039ZM22.7171 3.37164C18.913 3.37164 15.8097 3.41454 13.4071 3.50035C11.8626 3.55755 10.4325 3.82927 9.11679 4.31551C7.05744 5.17357 5.59874 6.63227 4.74068 8.69162C4.25444 10.0073 3.98272 11.4374 3.92552 12.9819C3.83971 15.3845 3.79681 18.4878 3.79681 22.2919C3.79681 26.096 3.83971 29.1993 3.92552 31.6019C3.98272 33.1464 4.25444 34.5765 4.74068 35.8922C5.59874 37.9515 7.05744 39.4102 9.11679 40.2683C10.4325 40.7545 11.8626 41.0262 13.4071 41.0834C15.8097 41.1692 18.913 41.2121 22.7171 41.2121C26.5211 41.2121 29.6245 41.1692 32.027 41.0834C33.5715 41.0262 35.0016 40.7545 36.3173 40.2683C38.3767 39.4102 39.8354 37.9515 40.6934 35.8922C41.1797 34.5765 41.4514 33.1464 41.5086 31.6019C41.5944 29.1993 41.6373 26.096 41.6373 22.2919C41.6373 18.4878 41.5944 15.3845 41.5086 12.9819C41.4514 11.4374 41.1797 10.0073 40.6934 8.69162C39.8354 6.63227 38.3767 5.17357 36.3173 4.31551C35.0016 3.82927 33.5715 3.55755 32.027 3.50035C29.6245 3.41454 26.5211 3.37164 22.7171 3.37164ZM22.7171 31.0012C25.1196 31.0012 27.1718 30.1503 28.8736 28.4485C30.5755 26.7467 31.4264 24.6945 31.4264 22.2919C31.4264 19.8893 30.5755 17.8371 28.8736 16.1353C27.1718 14.4335 25.1196 13.5826 22.7171 13.5826C20.3145 13.5826 18.2623 14.4335 16.5605 16.1353C14.8586 17.8371 14.0077 19.8893 14.0077 22.2919C14.0077 24.6945 14.8586 26.7467 16.5605 28.4485C18.2623 30.1503 20.3145 31.0012 22.7171 31.0012ZM22.7171 11.1371C25.8061 11.1371 28.4375 12.224 30.6112 14.3977C32.785 16.5715 33.8719 19.2029 33.8719 22.2919C33.8719 25.3809 32.785 28.0123 30.6112 30.186C28.4375 32.3598 25.8061 33.4467 22.7171 33.4467C19.628 33.4467 16.9967 32.3598 14.8229 30.186C12.6491 28.0123 11.5623 25.3809 11.5623 22.2919C11.5623 19.2029 12.6491 16.5715 14.8229 14.3977C16.9967 12.224 19.628 11.1371 22.7171 11.1371ZM36.9609 10.7081C36.9609 11.4231 36.7035 12.0309 36.1886 12.5314C35.6738 13.032 35.0445 13.2822 34.3009 13.2822C33.5858 13.2822 32.978 13.032 32.4775 12.5314C31.977 12.0309 31.7267 11.4231 31.7267 10.7081C31.7267 9.96441 31.977 9.33517 32.4775 8.82033C32.978 8.30549 33.5858 8.04807 34.3009 8.04807C35.0159 8.04807 35.638 8.31264 36.1672 8.84178C36.6963 9.37092 36.9609 9.99301 36.9609 10.7081Z" fill="white"/>
</svg>
