<svg width="20" height="20" viewBox="0 0 20 20" fill="none" xmlns="http://www.w3.org/2000/svg">
<path d="M18.4006 0H1.70878C0.797082 0 0 0.65642 0 1.5577V18.286C0 19.1925 0.797082 20 1.70878 20H18.3954C19.3123 20 20 19.1873 20 18.286V1.5577C20.0052 0.65642 19.3123 0 18.4006 0ZM6.19952 16.671H3.3342V7.76243H6.19952V16.671ZM4.86584 6.40791H4.845C3.9281 6.40791 3.3342 5.72544 3.3342 4.87105C3.3342 4.00104 3.94373 3.3342 4.88147 3.3342C5.81922 3.3342 6.39228 3.99583 6.41312 4.87105C6.41312 5.72544 5.81921 6.40791 4.86584 6.40791ZM16.671 16.671H13.8057V11.7999C13.8057 10.633 13.3889 9.83588 12.3522 9.83588C11.5603 9.83588 11.0914 10.3725 10.883 10.8934C10.8049 11.081 10.784 11.3363 10.784 11.5968V16.671H7.91872V7.76243H10.784V9.00233C11.2008 8.40843 11.852 7.55404 13.368 7.55404C15.2487 7.55404 16.671 8.79394 16.671 11.4665V16.671Z" fill="white"/>
</svg>
