<svg width="49" height="40" viewBox="0 0 49 40" fill="none" xmlns="http://www.w3.org/2000/svg">
<path d="M48.6356 5.42183C46.8719 6.20339 44.9771 6.73147 42.9852 6.97016C45.0405 5.74036 46.5781 3.80478 47.3112 1.52461C45.3802 2.67157 43.2669 3.47891 41.063 3.91153C39.5809 2.32912 37.6179 1.28027 35.4787 0.927823C33.3395 0.575378 31.1437 0.939055 29.2324 1.96239C27.321 2.98573 25.801 4.61147 24.9083 6.58721C24.0156 8.56295 23.8001 10.7781 24.2954 12.8889C20.3827 12.6924 16.5551 11.6755 13.0609 9.90397C9.56667 8.13249 6.48399 5.64608 4.01291 2.60611C3.16799 4.06361 2.68215 5.75347 2.68215 7.55316C2.68121 9.1733 3.08018 10.7686 3.84367 12.1976C4.60716 13.6265 5.71156 14.845 7.05888 15.7447C5.49635 15.695 3.96829 15.2728 2.60189 14.5133V14.64C2.60173 16.9123 3.38774 19.1147 4.82654 20.8734C6.26535 22.6322 8.26833 23.839 10.4956 24.2891C9.04611 24.6814 7.52641 24.7391 6.0513 24.4581C6.67971 26.4132 7.9038 28.123 9.55219 29.3479C11.2006 30.5728 13.1908 31.2516 15.2441 31.2893C11.7584 34.0256 7.45364 35.5099 3.02224 35.5034C2.23726 35.5036 1.45295 35.4577 0.67334 35.3661C5.17147 38.2582 10.4076 39.7931 15.7553 39.7871C33.8579 39.7871 43.7541 24.7939 43.7541 11.7905C43.7541 11.368 43.7435 10.9413 43.7245 10.5189C45.6494 9.12679 47.311 7.40297 48.6314 5.42817L48.6356 5.42183Z" fill="white"/>
</svg>
